<svg viewBox="0 0 49 24" fill="none" xmlns="http://www.w3.org/2000/svg" role="img"><g clip-path="url(#goto-black-yellow_svg__a)"><path fill-rule="evenodd" clip-rule="evenodd" d="M0.580994 23.999L49 18.947L48.416 13.43L-0.00300598 18.482L0.580994 23.999Z" fill="#FCE81F"></path><path fill-rule="evenodd" clip-rule="evenodd" d="M23.4644 11.7109C21.7509 11.7109 20.3603 10.3302 20.3603 8.62907C20.3603 6.92787 21.7509 5.54723 23.4644 5.54723C25.1779 5.54723 26.5686 6.92787 26.5686 8.62907C26.5686 10.3302 25.1779 11.7109 23.4644 11.7109ZM23.4644 3.08179C20.3851 3.08179 17.877 5.54723 17.877 8.62907C17.877 11.6862 20.3851 14.1763 23.4644 14.1763C26.5686 14.1763 29.0519 11.6862 29.0519 8.62907C29.0519 5.54723 26.5686 3.08179 23.4644 3.08179ZM41.4457 11.7109C39.7322 11.7109 38.3415 10.3302 38.3415 8.62907C38.3415 6.92787 39.7322 5.54723 41.4457 5.54723C43.1592 5.54723 44.5498 6.92787 44.5498 8.62907C44.5498 10.3302 43.1592 11.7109 41.4457 11.7109ZM41.4457 3.08179C38.3664 3.08179 35.8582 5.54723 35.8582 8.62907C35.8582 11.6862 38.3664 14.1763 41.4457 14.1763C44.5498 14.1763 47.0331 11.6862 47.0331 8.62907C47.0331 5.54723 44.5498 3.08179 41.4457 3.08179Z" fill="#0A0B09"></path><path fill-rule="evenodd" clip-rule="evenodd" d="M38.043 2.76099V0.29599H26.868V2.76099H31.213V13.88H33.697V2.76099H38.043Z" fill="#0A0B09"></path><path fill-rule="evenodd" clip-rule="evenodd" d="M8.36583 5.84308V8.30857H11.7977C11.0057 10.3745 9.49525 11.7109 7.74501 11.7109C6.47853 11.7109 5.31133 11.1931 4.46701 10.3549C3.62269 9.5166 3.1012 8.35785 3.1012 7.07583C3.1012 5.7938 3.62269 4.65971 4.46701 3.82142C5.31133 2.98318 6.47853 2.46544 7.74501 2.46544C9.03633 2.46544 10.2035 2.98318 11.0478 3.82142L12.811 2.07099C11.5197 0.78896 9.73164 0 7.74501 0C5.78318 0 3.99516 0.78896 2.70383 2.07099C1.41251 3.35302 0.617874 5.12812 0.617874 7.07583C0.617874 9.0482 1.41251 10.7986 2.70383 12.0807C3.99516 13.3627 5.78318 14.1763 7.74501 14.1763C10.1768 14.1763 12.3639 12.6218 13.6553 10.1534C13.6553 11.3017 13.6553 12.5162 13.6553 13.8805H16.1386V5.84308C16.1386 5.84308 9.83753 5.84308 8.36583 5.84308Z" fill="#0A0B09"></path></g><defs><clipPath id="goto-black-yellow_svg__a"><rect width="49" height="24" fill="white"></rect></clipPath></defs></svg>